<svg width="213" height="213" viewBox="0 0 213 213" fill="none" xmlns="http://www.w3.org/2000/svg">
<path d="M61.0469 158.036C34.0859 133.617 33.0006 90.8882 58.6228 62.5989C84.2451 34.3096 126.872 31.1722 153.833 55.5914C180.794 80.0106 181.88 122.739 156.257 151.029C130.635 179.318 88.008 182.455 61.0469 158.036Z" fill="white"/>
<path d="M49.1487 146.037C49.3323 146.037 49.4887 146.056 49.618 146.095C49.7473 146.134 49.868 146.228 49.9803 146.377C50.1006 146.537 50.1678 146.759 50.1819 147.044C50.1851 147.336 50.2135 147.684 50.2672 148.088C50.3129 148.481 50.427 148.932 50.6095 149.44C50.7731 149.945 51.0794 150.496 51.5285 151.093C52.1299 151.892 52.8057 152.49 53.5559 152.888C54.2953 153.294 55.0927 153.511 55.9482 153.54C56.7957 153.557 57.685 153.398 58.6162 153.061C59.5393 152.714 60.4785 152.2 61.4337 151.519C62.4325 150.806 63.2384 150.06 63.8516 149.279C64.4539 148.505 64.8687 147.726 65.0959 146.942C65.3042 146.155 65.333 145.373 65.1822 144.597C65.0125 143.818 64.655 143.066 64.1097 142.341C63.5885 141.649 63.078 141.137 62.5784 140.806C62.0679 140.482 61.6013 140.25 61.1785 140.11C60.7477 139.959 60.3787 139.845 60.0715 139.77C59.7455 139.691 59.5103 139.556 59.3659 139.364C59.1895 139.13 59.1455 138.883 59.2338 138.623L59.6907 137.07C60.4004 137.104 61.0811 137.232 61.7327 137.455C62.3843 137.678 63.0152 137.973 63.6252 138.34C64.2164 138.704 64.7733 139.134 65.2961 139.629C65.8188 140.124 66.3007 140.664 66.7417 141.25C67.5035 142.262 68.0233 143.34 68.3009 144.485C68.5705 145.618 68.5877 146.76 68.3524 147.911C68.1062 149.068 67.5929 150.204 66.8126 151.317C66.0323 152.43 64.9691 153.467 63.623 154.427C62.3963 155.301 61.1376 155.945 59.8469 156.358C58.5481 156.761 57.2837 156.909 56.0535 156.804C54.8044 156.697 53.6154 156.325 52.4863 155.689C51.3493 155.043 50.3196 154.108 49.3974 152.883C48.5394 151.743 47.9755 150.606 47.7059 149.472C47.4174 148.336 47.3625 147.188 47.5412 146.029L49.1487 146.037Z" fill="black"/>
<path d="M55.9493 126.069C55.6002 124.782 55.0241 123.828 54.221 123.205C53.4048 122.586 52.4679 122.385 51.4102 122.604C50.9402 122.701 50.535 122.86 50.1947 123.08C49.8414 123.302 49.5648 123.604 49.3648 123.985C49.1648 124.366 49.0598 124.843 49.0497 125.416C49.0361 125.976 49.1341 126.642 49.3436 127.414L50.4903 131.641L57.0908 130.277L55.9493 126.069ZM42.0488 133.386L48.2771 132.099L47.256 128.335C47.1024 127.768 46.8827 127.263 46.5968 126.82C46.2944 126.366 45.9525 125.995 45.5709 125.707C45.1764 125.421 44.7505 125.224 44.2934 125.115C43.8232 125.008 43.34 125.006 42.8438 125.109C42.4782 125.184 42.1431 125.321 41.8385 125.52C41.5209 125.722 41.2734 126.004 41.096 126.367C40.9056 126.732 40.8001 127.182 40.7796 127.716C40.746 128.253 40.8287 128.889 41.0277 129.622L42.0488 133.386ZM38.6512 130.011C38.323 128.802 38.166 127.74 38.1802 126.827C38.1944 125.913 38.3419 125.135 38.6227 124.493C38.8904 123.853 39.2766 123.345 39.7813 122.969C40.286 122.593 40.8648 122.338 41.5177 122.203C41.9486 122.114 42.4148 122.078 42.9163 122.097C43.4177 122.116 43.9241 122.228 44.4353 122.435C44.9429 122.629 45.4411 122.941 45.9298 123.37C46.402 123.789 46.8372 124.351 47.2356 125.057C47.0918 123.51 47.3081 122.249 47.8847 121.274C48.4482 120.301 49.3763 119.681 50.669 119.414C51.6352 119.214 52.5298 119.233 53.3527 119.471C54.159 119.698 54.8945 120.097 55.5591 120.666C56.2203 121.223 56.7888 121.92 57.2647 122.76C57.7406 123.599 58.1165 124.527 58.3923 125.544L60.4345 133.071L40.5939 137.172L38.6512 130.011Z" fill="black"/>
<path d="M45.0006 102.918L38.0183 101.874L37.7243 105.261C37.6585 106.018 37.7152 106.672 37.8944 107.224C38.0604 107.774 38.301 108.233 38.6162 108.604C38.9193 108.958 39.2761 109.234 39.6866 109.43C40.0838 109.624 40.4868 109.751 40.8956 109.812C41.9769 109.974 42.862 109.703 43.551 108.999C44.2268 108.292 44.6247 107.249 44.7446 105.867L45.0006 102.918ZM35.9389 98.1313L55.9759 101.129L55.6818 104.516L47.2358 103.253L47.1008 104.807C47.0685 105.179 47.0744 105.496 47.1184 105.758C47.1504 106.005 47.2111 106.229 47.3004 106.431C47.3909 106.62 47.5161 106.793 47.676 106.952C47.8227 107.108 47.9952 107.275 48.1935 107.453L53.7236 112.761C54.126 113.05 54.4117 113.375 54.5806 113.737C54.7508 114.085 54.8087 114.572 54.7545 115.196L54.54 117.667L47.4927 110.678C46.743 110.082 46.2703 109.372 46.0747 108.549C45.854 109.552 45.5417 110.38 45.1377 111.032C44.7337 111.685 44.2813 112.203 43.7806 112.585C43.2678 112.953 42.7193 113.194 42.135 113.308C41.5506 113.422 40.9684 113.436 40.3882 113.349C39.7025 113.247 39.0283 113.011 38.3656 112.643C37.7042 112.262 37.1356 111.733 36.6601 111.056C36.1713 110.377 35.8031 109.542 35.5553 108.549C35.2955 107.542 35.2244 106.36 35.342 105.005L35.9389 98.1313Z" fill="black"/>
<path d="M69.0316 72.6136L67.8159 74.7751C67.5021 75.3329 67.1745 75.7116 66.8329 75.9111C66.4978 76.0989 66.1015 76.1647 65.6438 76.1084L58.3058 76.3083C57.093 76.3439 56.1859 76.8963 55.5846 77.9654L54.5845 79.7435L62.4111 84.4252L60.7149 87.4409L52.8883 82.7592L51.8981 84.5198C51.6039 85.0428 51.4504 85.5877 51.4374 86.1546C51.4309 86.7098 51.5699 87.2511 51.8544 87.7785L55.3294 94.4467C55.5975 94.8401 55.7324 95.2391 55.7341 95.644C55.7423 96.0372 55.5896 96.5127 55.2758 97.0705L54.0699 99.2146L49.4863 90.2759C49.1528 89.6725 48.9394 89.0867 48.8462 88.5184C48.7529 87.9501 48.7831 87.3391 48.9367 86.6855C48.551 87.045 48.1383 87.3029 47.6986 87.4592C47.2541 87.5971 46.7449 87.6731 46.1712 87.6871L36.9577 88.3261L38.3303 85.8856C38.5003 85.5834 38.734 85.3583 39.0314 85.21C39.3174 85.055 39.6312 84.9864 39.9729 85.0044L47.5732 84.542C48.0946 84.5122 48.5596 84.3788 48.9682 84.1417C49.3653 83.8978 49.7012 83.5318 49.9757 83.0437L50.8287 81.5271L43.311 77.0302L45.0072 74.0145L52.5249 78.5114L53.3583 77.0297C53.9139 76.0419 53.9431 75.0654 53.4461 74.1003L50.0618 67.067C49.877 66.7701 49.7789 66.4552 49.7674 66.1221C49.751 65.7706 49.8278 65.4438 49.9978 65.1417L51.3704 62.7012L55.4071 71.2663C55.6802 71.7868 55.8657 72.2861 55.9639 72.7642C56.0571 73.2237 56.0482 73.7154 55.9371 74.2391C56.4111 73.7771 56.9104 73.4468 57.435 73.2481C57.9596 73.0494 58.5587 72.9496 59.2321 72.9486L69.0316 72.6136Z" fill="black"/>
<path d="M73.4184 44.5735L85.4841 60.8488L82.5686 62.8917L74.3739 51.838C74.2151 51.6238 74.0553 51.3858 73.8945 51.1242C73.7337 50.8625 73.5784 50.597 73.4285 50.3277C73.4891 50.6108 73.5377 50.8778 73.5744 51.1288C73.6111 51.3797 73.6305 51.6184 73.6324 51.8449L73.5438 68.1415C73.5508 68.397 73.521 68.6701 73.4545 68.9609C73.3909 69.2333 73.25 69.446 73.0316 69.599L71.2626 70.8385L59.1969 54.5632L62.1287 52.5088L70.3234 63.5625C70.4743 63.766 70.6301 63.9986 70.7909 64.2603C70.9438 64.5112 71.0952 64.7713 71.245 65.0406C71.1924 64.7683 71.1517 64.512 71.123 64.2717C71.0863 64.0208 71.0615 63.7859 71.0486 63.5671L71.1372 47.2705C71.1302 47.015 71.164 46.7472 71.2384 46.4672C71.305 46.1764 71.4474 45.9546 71.6658 45.8015L73.4184 44.5735Z" fill="black"/>
<path d="M100.806 37.1738L93.2543 39.0459L98.4731 55.7916L95.0177 56.6482L89.7989 39.9026L82.2475 41.7747L81.4382 39.1779L99.9964 34.577L100.806 37.1738Z" fill="black"/>
<path d="M122.349 43.6924C122.404 42.8675 122.334 42.1004 122.141 41.3911C121.962 40.6702 121.664 40.0346 121.247 39.4842C120.844 38.9221 120.334 38.4671 119.716 38.1189C119.1 37.7574 118.389 37.5245 117.582 37.4201C115.89 37.2012 114.514 37.5265 113.457 38.3961C112.413 39.254 111.715 40.5457 111.361 42.2711L122.349 43.6924ZM124.58 53.5412C124.108 54.0169 123.555 54.415 122.92 54.7355C122.287 55.0426 121.611 55.2773 120.894 55.4394C120.189 55.6033 119.463 55.6972 118.715 55.7211C117.965 55.7584 117.227 55.73 116.5 55.6359C115.111 55.4563 113.844 55.0576 112.698 54.4397C111.566 53.8103 110.6 52.9876 109.8 51.9717C109.014 50.9443 108.428 49.7279 108.041 48.3226C107.653 46.9172 107.517 45.3431 107.632 43.6003C107.725 42.19 108.024 40.9002 108.528 39.731C109.045 38.5634 109.736 37.5861 110.602 36.799C111.468 35.9987 112.5 35.421 113.697 35.0659C114.895 34.6975 116.221 34.6074 117.675 34.7956C118.879 34.9512 119.976 35.3011 120.967 35.8452C121.972 36.3778 122.819 37.0777 123.509 37.9452C124.212 38.801 124.738 39.8217 125.087 41.0073C125.436 42.1796 125.564 43.4842 125.469 44.9211C125.432 45.4799 125.348 45.8447 125.216 46.0156C125.085 46.1865 124.854 46.2505 124.524 46.2077L111.095 44.4709C111.051 45.7532 111.149 46.8864 111.391 47.8703C111.646 48.856 112.03 49.7041 112.543 50.4145C113.058 51.1116 113.688 51.6695 114.433 52.088C115.18 52.4932 116.03 52.7573 116.982 52.8805C117.868 52.9951 118.635 52.9936 119.282 52.8762C119.944 52.7471 120.515 52.5928 120.993 52.4132C121.472 52.2335 121.87 52.0636 122.187 51.9034C122.519 51.7316 122.797 51.6602 123.022 51.6893C123.312 51.7269 123.53 51.8691 123.674 52.1158L124.58 53.5412Z" fill="black"/>
<path d="M147.854 49.1602C147.692 49.2354 147.546 49.2814 147.415 49.298C147.285 49.3147 147.139 49.2762 146.977 49.1824C146.804 49.0819 146.652 48.9011 146.521 48.6399C146.397 48.367 146.227 48.0523 146.011 47.6957C145.807 47.3458 145.518 46.97 145.145 46.5681C144.79 46.1613 144.289 45.7703 143.644 45.3951C142.779 44.8926 141.932 44.6085 141.103 44.5429C140.28 44.4656 139.485 44.5891 138.717 44.9134C137.96 45.2445 137.241 45.7588 136.558 46.4565C135.886 47.1608 135.27 48.0283 134.71 49.0591C134.124 50.1367 133.722 51.1675 133.506 52.1515C133.296 53.1238 133.253 54.0242 133.379 54.8528C133.523 55.6763 133.823 56.4212 134.28 57.0875C134.755 57.7488 135.384 58.3073 136.168 58.7629C136.918 59.1983 137.582 59.4689 138.162 59.5746C138.748 59.6686 139.257 59.6948 139.689 59.6531C140.133 59.6181 140.507 59.5731 140.81 59.518C141.131 59.4579 141.395 59.4881 141.602 59.6087C141.856 59.7561 141.998 59.9696 142.028 60.2491L142.271 61.8936C141.63 62.1527 140.975 62.3115 140.306 62.3697C139.637 62.428 138.956 62.4102 138.264 62.3161C137.589 62.2171 136.918 62.0427 136.25 61.7931C135.581 61.5434 134.93 61.2343 134.296 60.8659C133.201 60.2294 132.292 59.4315 131.57 58.4721C130.859 57.5195 130.368 56.4557 130.097 55.2806C129.832 54.0939 129.813 52.8185 130.039 51.4546C130.265 50.0906 130.773 48.6825 131.563 47.23C132.283 45.9065 133.127 44.7863 134.096 43.8696C135.076 42.9595 136.132 42.3014 137.263 41.8952C138.413 41.4839 139.619 41.3447 140.882 41.4775C142.156 41.6169 143.456 42.0719 144.782 42.8424C146.015 43.5592 146.987 44.394 147.698 45.3466C148.427 46.2942 148.954 47.348 149.279 48.508L147.854 49.1602Z" fill="black"/>
<path d="M150.052 70.1928C150.492 70.7628 150.94 71.2023 151.398 71.5114C151.874 71.8232 152.347 72.0216 152.817 72.1067C153.298 72.184 153.768 72.161 154.229 72.0379C154.69 71.9148 155.13 71.6995 155.549 71.3918C155.936 71.1078 156.251 70.7855 156.495 70.4249C156.749 70.0564 156.899 69.6402 156.946 69.1765C157 68.7233 156.935 68.2251 156.752 67.6819C156.568 67.1387 156.236 66.5557 155.756 65.9329L153.128 62.5289L147.388 66.7412L150.052 70.1928ZM157.852 64.3947C158.707 65.503 159.29 66.5305 159.599 67.4771C159.917 68.4343 160.025 69.3055 159.924 70.0906C159.831 70.8864 159.566 71.6015 159.13 72.2359C158.694 72.8703 158.158 73.4202 157.524 73.8856C156.793 74.422 156.018 74.7923 155.199 74.9965C154.391 75.1928 153.569 75.2085 152.735 75.0437C151.912 74.8711 151.09 74.5152 150.27 73.9763C149.46 73.4294 148.689 72.681 147.956 71.731L143.202 65.572L159.536 53.5858L161.626 56.2932L155.224 60.9907L157.852 64.3947Z" fill="black"/>
<path d="M175.96 102.22C175.803 102.118 175.68 102.015 175.59 101.911C175.5 101.807 175.446 101.662 175.428 101.477C175.409 101.277 175.468 101.056 175.606 100.812C175.756 100.569 175.915 100.264 176.081 99.9002C176.248 99.5493 176.387 99.1126 176.497 98.5903C176.623 98.0809 176.65 97.4545 176.58 96.7111C176.485 95.7156 176.222 94.8448 175.791 94.0987C175.372 93.3521 174.805 92.7297 174.09 92.2315C173.376 91.7465 172.533 91.385 171.561 91.1471C170.591 90.9224 169.52 90.8271 168.347 90.8613C167.121 90.897 166.041 91.0682 165.108 91.3748C164.188 91.6811 163.426 92.096 162.82 92.6194C162.23 93.1557 161.795 93.7873 161.517 94.5141C161.253 95.2539 161.164 96.0751 161.249 96.9777C161.331 97.8405 161.498 98.5477 161.751 99.0994C162.017 99.6507 162.294 100.102 162.581 100.453C162.87 100.817 163.125 101.116 163.348 101.349C163.585 101.595 163.715 101.837 163.738 102.076C163.765 102.368 163.674 102.597 163.462 102.763L162.257 103.797C161.669 103.374 161.155 102.89 160.716 102.344C160.277 101.798 159.893 101.203 159.565 100.561C159.251 99.9309 159.001 99.266 158.814 98.5659C158.627 97.8659 158.499 97.1509 158.43 96.4208C158.31 95.1598 158.432 93.9783 158.795 92.8763C159.16 91.7876 159.744 90.8322 160.548 90.0101C161.365 89.1877 162.399 88.5321 163.649 88.0431C164.899 87.5542 166.35 87.2857 168.003 87.2376C169.509 87.1937 170.921 87.3589 172.24 87.7332C173.56 88.1207 174.717 88.6993 175.712 89.4689C176.722 90.2515 177.542 91.2192 178.173 92.3722C178.805 93.5384 179.193 94.8848 179.338 96.4112C179.473 97.8315 179.358 99.0861 178.993 100.175C178.643 101.276 178.088 102.258 177.328 103.118L175.96 102.22Z" fill="black"/>
<path d="M169.559 140.616L151.475 131.48L152.975 128.23L161.437 132.504L165.51 123.679L157.048 119.404L158.548 116.154L176.632 125.289L175.132 128.54L167.92 124.896L163.847 133.722L171.059 137.365L169.559 140.616Z" fill="black"/>
<path d="M147.837 150.255C148.948 149.048 149.833 147.957 150.493 146.98C151.153 146.023 151.621 145.166 151.896 144.411C152.161 143.665 152.249 143.015 152.157 142.461C152.056 141.916 151.805 141.449 151.404 141.059C151.021 140.687 150.631 140.428 150.232 140.282C149.834 140.136 149.441 140.079 149.054 140.112C148.667 140.164 148.29 140.29 147.924 140.492C147.558 140.712 147.211 140.989 146.884 141.322C146.445 141.769 146.086 142.22 145.808 142.675C145.539 143.139 145.332 143.616 145.186 144.107C145.031 144.607 144.928 145.121 144.878 145.648C144.818 146.185 144.8 146.745 144.826 147.327L147.837 150.255ZM161.831 147.824C161.821 149.376 161.554 150.799 161.03 152.094C160.506 153.388 159.692 154.597 158.59 155.719C157.796 156.528 156.957 157.116 156.072 157.483C155.188 157.851 154.297 158.016 153.398 157.979C152.5 157.943 151.604 157.704 150.71 157.262C149.817 156.821 148.964 156.206 148.151 155.415L138.86 146.38L139.968 145.253C140.21 145.005 140.436 144.852 140.643 144.794C140.86 144.744 141.125 144.797 141.439 144.954L143.095 146.007C143.115 145.282 143.164 144.605 143.242 143.974C143.33 143.352 143.474 142.748 143.675 142.163C143.886 141.587 144.168 141.024 144.521 140.474C144.855 139.925 145.293 139.375 145.835 138.823C146.386 138.262 146.981 137.808 147.62 137.462C148.268 137.126 148.932 136.925 149.612 136.861C150.282 136.806 150.964 136.902 151.657 137.148C152.35 137.413 153.026 137.866 153.686 138.507C154.259 139.065 154.655 139.756 154.872 140.582C155.099 141.416 155.072 142.385 154.792 143.489C154.511 144.592 153.944 145.836 153.091 147.219C152.246 148.611 151.035 150.148 149.457 151.831L150.59 152.933C151.718 154.03 152.807 154.614 153.857 154.687C154.916 154.769 155.904 154.344 156.82 153.412C157.436 152.784 157.874 152.177 158.131 151.591C158.39 151.023 158.572 150.485 158.68 149.976C158.788 149.486 158.873 149.047 158.934 148.661C158.996 148.294 159.135 148 159.35 147.782C159.518 147.61 159.706 147.505 159.913 147.465C160.13 147.434 160.348 147.441 160.566 147.486L161.831 147.824Z" fill="black"/>
<path d="M125.472 177.119L116.651 158.813L119.616 157.556L125.459 169.681C125.621 170.018 125.782 170.398 125.942 170.822C126.095 171.263 126.222 171.679 126.322 172.071L127.446 158.205C127.458 157.983 127.517 157.785 127.624 157.609C127.732 157.433 127.89 157.301 128.099 157.212L128.467 157.056C128.676 156.968 128.892 156.941 129.116 156.976C129.328 157.017 129.526 157.106 129.711 157.245L141.677 165.601C141.442 165.267 141.195 164.894 140.938 164.482C140.686 164.083 140.479 163.715 140.317 163.379L134.474 151.253L137.439 149.996L146.26 168.301L143.627 169.418C143.393 169.517 143.14 169.559 142.867 169.545C142.6 169.542 142.32 169.437 142.027 169.228L131.625 162.183C131.076 161.75 130.544 161.275 130.028 160.756C130.126 161.481 130.161 162.168 130.134 162.816L129.01 174.75C128.989 175.106 128.892 175.379 128.717 175.569C128.542 175.758 128.338 175.903 128.105 176.002L125.472 177.119Z" fill="black"/>
<path d="M95.2756 178.631L94.9135 158.374L98.4695 158.542L98.7155 172.3C98.7202 172.566 98.712 172.852 98.6909 173.158C98.6697 173.463 98.6419 173.768 98.6074 174.073C98.7225 173.812 98.838 173.571 98.9538 173.35C99.0696 173.129 99.1925 172.928 99.3223 172.748L108.854 159.91C108.996 159.704 109.179 159.506 109.402 159.317C109.612 159.14 109.85 159.058 110.116 159.071L112.274 159.173L112.636 179.429L109.06 179.261L108.814 165.503C108.809 165.25 108.818 164.97 108.839 164.665C108.86 164.373 108.888 164.075 108.923 163.77C108.807 164.018 108.692 164.245 108.576 164.453C108.46 164.674 108.344 164.875 108.227 165.056L98.6957 177.893C98.553 178.099 98.3701 178.291 98.147 178.467C97.9242 178.656 97.6796 178.744 97.4132 178.732L95.2756 178.631Z" fill="black"/>
</svg>
